<svg width="37" height="38" viewBox="0 0 37 38" fill="none" xmlns="http://www.w3.org/2000/svg">
<path fill-rule="evenodd" clip-rule="evenodd" d="M18.3706 0C8.21213 0 0 8.54154 0 19.1086C0 27.5554 5.2618 34.7055 12.5613 37.2361C13.4739 37.4263 13.8082 36.8249 13.8082 36.319C13.8082 35.876 13.7781 34.3576 13.7781 32.7755C8.66788 33.9146 7.60372 30.4976 7.60372 30.4976C6.78246 28.283 5.56563 27.7138 5.56563 27.7138C3.89305 26.5432 5.68746 26.5432 5.68746 26.5432C7.5428 26.6698 8.51634 28.5047 8.51634 28.5047C10.1585 31.415 12.8046 30.5927 13.8691 30.0864C14.0211 28.8526 14.508 27.9984 15.0251 27.524C10.9493 27.081 6.66101 25.4359 6.66101 18.096C6.66101 16.008 7.39051 14.2997 8.54642 12.9711C8.36405 12.4967 7.72517 10.5348 8.72918 7.90908C8.72918 7.90908 10.2803 7.4028 13.7778 9.87053C15.2752 9.45225 16.8194 9.23947 18.3706 9.23768C19.9217 9.23768 21.5029 9.45937 22.9631 9.87053C26.4609 7.4028 28.012 7.90908 28.012 7.90908C29.016 10.5348 28.3768 12.4967 28.1944 12.9711C29.3808 14.2997 30.0802 16.008 30.0802 18.096C30.0802 25.4359 25.7919 27.0491 21.6857 27.524C22.355 28.125 22.9326 29.2637 22.9326 31.0672C22.9326 33.6296 22.9025 35.6862 22.9025 36.3186C22.9025 36.8249 23.2372 37.4263 24.1494 37.2365C31.4489 34.7051 36.7107 27.5554 36.7107 19.1086C36.7408 8.54154 28.4986 0 18.3706 0Z" fill="white"/>
</svg>
