<svg width="36" height="38" viewBox="0 0 36 38" fill="none" xmlns="http://www.w3.org/2000/svg">
<path d="M33.5498 19.0243C33.5498 17.813 33.4457 16.6482 33.2524 15.53H17.8457V22.1381H26.6495C26.2703 24.2735 25.1178 26.0828 23.3853 27.2941V31.5804H28.672C31.7652 28.6064 33.5498 24.2269 33.5498 19.0243Z" fill="#4285F4"/>
<path d="M17.8455 35.7194C22.2623 35.7194 25.9652 34.1897 28.6718 31.5807L23.3851 27.2943C21.9203 28.3193 20.0465 28.925 17.8455 28.925C13.5849 28.925 9.97861 25.9199 8.69225 21.8821H3.22705V26.3082C5.91875 31.8913 11.4509 35.7194 17.8455 35.7194Z" fill="#34A853"/>
<path d="M8.69244 21.882C8.36527 20.8571 8.17938 19.7622 8.17938 18.6362C8.17938 17.5103 8.36527 16.4154 8.69244 15.3904V10.9644H3.22725C2.08216 13.3449 1.4863 15.9722 1.48731 18.6362C1.48731 21.3928 2.11934 24.0019 3.22725 26.3081L8.69244 21.882Z" fill="#FBBC05"/>
<path d="M17.8455 8.34742C20.2472 8.34742 22.4036 9.20934 24.0989 10.9021L28.7908 6.00237C25.9578 3.24576 22.2549 1.55298 17.8455 1.55298C11.4509 1.55298 5.91875 5.38116 3.22705 10.9642L8.69225 15.3903C9.97861 11.3525 13.5849 8.34742 17.8455 8.34742Z" fill="#EA4335"/>
</svg>
